<svg id="Set1b" xmlns="http://www.w3.org/2000/svg" xmlns:xlink="http://www.w3.org/1999/xlink" width="300" height="300" viewBox="0 0 300 300">
  <defs>
    <style>
      .cls-1, .cls-2, .cls-5 {
        fill: #fff;
      }

      .cls-1, .cls-2, .cls-6 {
        stroke: #5b6771;
      }

      .cls-1, .cls-2, .cls-4, .cls-6, .cls-7 {
        stroke-miterlimit: 10;
      }

      .cls-1 {
        stroke-width: 7px;
      }

      .cls-2, .cls-6 {
        stroke-width: 4px;
      }

      .cls-3 {
        fill: #5b6770;
      }

      .cls-4, .cls-6, .cls-7 {
        fill: none;
      }

      .cls-4, .cls-7 {
        stroke: #5b6770;
      }

      .cls-4 {
        stroke-width: 9px;
      }

      .cls-7 {
        stroke-width: 3px;
      }

      .cls-8 {
        fill: #78d64b;
      }
    </style>
    <symbol id="ShlMan" data-name="ShlMan" viewBox="0 0 201.34 232.04">
      <g id="puzzle_outline" data-name="puzzle outline">
        <g>
          <path class="cls-1" d="M186.73,228.55H14.93a11.66,11.66,0,0,1-5.88-1.47,11.5,11.5,0,0,1-5.5-11l9.54-83.33c1.1-9.55,8.08-18.36,16.89-21.29l25.33-7.35c2.94-1.1,7-1.1,9.54,1.11l12.49,12.85a32.61,32.61,0,0,0,47.35,0l12.48-12.85a12.54,12.54,0,0,1,9.55-1.11l25.33,7.35c8.81,2.93,15.79,12.48,16.89,21.29l8.81,83c.36,2.93-.37,6.6-2.94,8.44A10.14,10.14,0,0,1,186.73,228.55Z"/>
          <circle class="cls-2" cx="99.73" cy="49.72" r="47.72"/>
        </g>
      </g>
    </symbol>
  </defs>
  <title>Analysing</title>
  <g id="Layer_49_copy" data-name="Layer 49 copy">
    <circle class="cls-3" cx="150" cy="130" r="126"/>
  </g>
  <g id="Analysing_copy_2" data-name="Analysing copy 2">
    <use width="201.34" height="232.05" transform="translate(19.34 53.86)" xlink:href="#ShlMan"/>
    <g id="Layer_25_copy_2" data-name="Layer 25 copy 2">
      <circle class="cls-4" cx="225.12" cy="77.73" r="40.9"/>
      <g>
        <path class="cls-5" d="M203.44,107.56l-15.05,33.11a7.09,7.09,0,0,0,3.53,9.4l1,.45a7.1,7.1,0,0,0,9.41-3.52l15.09-33.2A37.06,37.06,0,0,1,203.44,107.56Z"/>
        <path class="cls-6" d="M203.44,107.56l-15.05,33.11a7.09,7.09,0,0,0,3.53,9.4l1,.45a7.1,7.1,0,0,0,9.41-3.52l15.09-33.2A37.06,37.06,0,0,1,203.44,107.56Z"/>
      </g>
      <path class="cls-5" d="M262.8,64.68a39.87,39.87,0,1,0-24.62,50.73A39.87,39.87,0,0,0,262.8,64.68Zm-26.26,46a34.89,34.89,0,1,1,21.55-44.39A34.89,34.89,0,0,1,236.54,110.7Z"/>
      <circle class="cls-7" cx="225.12" cy="77.73" r="40.9"/>
      <path class="cls-5" d="M199.77,91.46a28,28,0,0,1-3.38-9,27,27,0,0,1-.47-4.84l0-1.22.09-1.22a19.83,19.83,0,0,1,.26-2.43,29.69,29.69,0,0,1,9-17.1,31.5,31.5,0,0,1,8.2-5.4A28.26,28.26,0,0,1,223,47.88a27.91,27.91,0,0,1,18.4,4.83,30.54,30.54,0,0,0-18.24-3.28,29.46,29.46,0,0,0-16.48,7.7A29.8,29.8,0,0,0,197.77,73a19.79,19.79,0,0,0-.35,2.29l-.15,1.16,0,1.17a26.18,26.18,0,0,0,.12,4.68A31,31,0,0,0,199.77,91.46Z"/>
    </g>
    <circle class="cls-8" cx="228.57" cy="78.94" r="21"/>
  </g>
</svg>
