<svg id="Set1b" xmlns="http://www.w3.org/2000/svg" xmlns:xlink="http://www.w3.org/1999/xlink" width="300" height="300" viewBox="0 0 300 300">
  <defs>
    <style>
      .cls-1, .cls-2 {
        fill: #fff;
        stroke: #5b6771;
      }

      .cls-1, .cls-2, .cls-4, .cls-5 {
        stroke-miterlimit: 10;
      }

      .cls-1 {
        stroke-width: 7px;
      }

      .cls-2 {
        stroke-width: 4px;
      }

      .cls-3 {
        fill: #5b6770;
      }

      .cls-4, .cls-5 {
        fill: none;
      }

      .cls-4 {
        stroke: #5b6770;
        stroke-width: 17px;
      }

      .cls-5 {
        stroke: #fff;
        stroke-width: 3px;
      }

      .cls-6 {
        fill: #78d64b;
      }
    </style>
    <symbol id="ShlMan" data-name="ShlMan" viewBox="0 0 201.34 232.04">
      <g id="puzzle_outline" data-name="puzzle outline">
        <g>
          <path class="cls-1" d="M186.73,228.55H14.93a11.66,11.66,0,0,1-5.88-1.47,11.5,11.5,0,0,1-5.5-11l9.54-83.33c1.1-9.55,8.08-18.36,16.89-21.29l25.33-7.35c2.94-1.1,7-1.1,9.54,1.11l12.49,12.85a32.61,32.61,0,0,0,47.35,0l12.48-12.85a12.54,12.54,0,0,1,9.55-1.11l25.33,7.35c8.81,2.93,15.79,12.48,16.89,21.29l8.81,83c.36,2.93-.37,6.6-2.94,8.44A10.14,10.14,0,0,1,186.73,228.55Z"/>
          <circle class="cls-2" cx="99.73" cy="49.72" r="47.72"/>
        </g>
      </g>
    </symbol>
  </defs>
  <title>Enterprising</title>
  <g id="Layer_49_copy" data-name="Layer 49 copy">
    <circle class="cls-3" cx="150" cy="130" r="126"/>
  </g>
  <g id="Enterprising_copy_3" data-name="Enterprising copy 3">
    <use width="201.34" height="232.05" transform="translate(19.34 53.86)" xlink:href="#ShlMan"/>
    <g id="Layer_35_copy_3" data-name="Layer 35 copy 3">
      <g>
        <path class="cls-4" d="M183.5,70.87a6.43,6.43,0,0,0,4.55,1.91h21.72v40.94c0,.19,0,1.17,0,1.17A11.27,11.27,0,0,0,221,125a11.48,11.48,0,0,0,11.4-10.17v-42h21.74A6.29,6.29,0,0,0,258.31,71a6.43,6.43,0,0,0,.19-8.77c-.07-.09-32.91-32.91-32.91-32.91s-.52-.44-.64-.56a5.82,5.82,0,0,0-7.51-.19c-.26.22-.95.8-1.46,1.32L184.39,61.38a15.92,15.92,0,0,0-1.21,1.27A6.25,6.25,0,0,0,183.5,70.87Z"/>
        <path class="cls-5" d="M183.5,70.87a6.43,6.43,0,0,0,4.55,1.91h21.72v40.94c0,.19,0,1.17,0,1.17A11.27,11.27,0,0,0,221,125a11.48,11.48,0,0,0,11.4-10.17v-42h21.74A6.29,6.29,0,0,0,258.31,71a6.43,6.43,0,0,0,.19-8.77c-.07-.09-32.91-32.91-32.91-32.91s-.52-.44-.64-.56a5.82,5.82,0,0,0-7.51-.19c-.26.22-.95.8-1.46,1.32L184.39,61.38a15.92,15.92,0,0,0-1.21,1.27A6.25,6.25,0,0,0,183.5,70.87Z"/>
      </g>
    </g>
    <circle class="cls-6" cx="220.88" cy="107.28" r="21"/>
  </g>
</svg>
