<svg id="Set1b" xmlns="http://www.w3.org/2000/svg" xmlns:xlink="http://www.w3.org/1999/xlink" width="300" height="300" viewBox="0 0 300 300">
  <defs>
    <style>
      .cls-1, .cls-2, .cls-4 {
        fill: #fff;
      }

      .cls-1, .cls-2 {
        stroke: #5b6771;
      }

      .cls-1, .cls-2, .cls-5 {
        stroke-miterlimit: 10;
      }

      .cls-1 {
        stroke-width: 7px;
      }

      .cls-2 {
        stroke-width: 4px;
      }

      .cls-3 {
        fill: #5b6770;
      }

      .cls-5 {
        fill: none;
        stroke: #5b6770;
        stroke-width: 3px;
      }

      .cls-6 {
        fill: #78d64b;
      }
    </style>
    <symbol id="ShlMan" data-name="ShlMan" viewBox="0 0 201.34 232.04">
      <g id="puzzle_outline" data-name="puzzle outline">
        <g>
          <path class="cls-1" d="M186.73,228.55H14.93a11.66,11.66,0,0,1-5.88-1.47,11.5,11.5,0,0,1-5.5-11l9.54-83.33c1.1-9.55,8.08-18.36,16.89-21.29l25.33-7.35c2.94-1.1,7-1.1,9.54,1.11l12.49,12.85a32.61,32.61,0,0,0,47.35,0l12.48-12.85a12.54,12.54,0,0,1,9.55-1.11l25.33,7.35c8.81,2.93,15.79,12.48,16.89,21.29l8.81,83c.36,2.93-.37,6.6-2.94,8.44A10.14,10.14,0,0,1,186.73,228.55Z"/>
          <circle class="cls-2" cx="99.73" cy="49.72" r="47.72"/>
        </g>
      </g>
    </symbol>
  </defs>
  <title>Organising</title>
  <g id="Layer_49_copy" data-name="Layer 49 copy">
    <circle class="cls-3" cx="150" cy="130" r="126"/>
  </g>
  <g id="Organisation_copy_2" data-name="Organisation copy 2">
    <use width="201.34" height="232.05" transform="translate(19.34 53.86)" xlink:href="#ShlMan"/>
    <g id="Layer_29_copy_2" data-name="Layer 29 copy 2">
      <g>
        <path class="cls-3" d="M255.16,98.07l-2-2.56c-.41-.35-.71-1-1.46-3.05l-.51,0c-1,1.89-1.5,2.65-2,3s-1.17,1.1-2.16,2l-1.17,1.13-6.48-2.62-.06-1.62c-.05-1.39-.1-2.61-.13-3.23s0-1.25.62-3.35l-.39-.33c-2.26,1.08-2.42,1.13-2.93,1.13-.34,0-1.55.19-3.41.45l-1.61.22-3.7-5.93.9-1.34,1.8-2.7c.19-.48.73-1,2.46-2.34l-.12-.5c-2.23-.41-2.94-.59-3.34-1l-2.72-1.47-1.42-.76.48-7,1.52-.55,3-1.11c.42-.29,1.11-.37,3.42-.46l.2-.48c-1.57-1.64-2-2.21-2.14-2.76s-.71-1.52-1.32-2.78l-.71-1.46,4.49-5.35,1.56.44,3.29.93c.46,0,.9.29,2.82,1.57l.44-.27c-.31-2.25-.35-3-.11-3.45s.3-1.6.56-3.07l.29-1.59,6.78-1.7,1,1.28,2,2.51c.41.32.7,1,1.49,3.1l.52,0c1-1.89,1.49-2.65,2-2.95S258,47,259,46l1.16-1.12,6.49,2.62.06,1.62c.05,1.4.1,2.63.12,3.25s0,1.2-.62,3.33l.4.33c2.24-1.08,2.41-1.13,2.92-1.13.35,0,1.56-.19,3.42-.45l1.6-.22,3.71,5.93-.9,1.34-1.8,2.7c-.2.48-.73,1-2.47,2.34l.12.5c2.23.41,3,.59,3.36,1l2.7,1.46,1.43.76-.49,7-1.52.55L275.66,79c-.46.27-1.2.34-3.35.43l-.19.48c1.56,1.64,2,2.21,2.13,2.77.25.52.7,1.47,1.33,2.77l.7,1.46-4.49,5.35-1.56-.44L267,90.85c-.46,0-.89-.29-2.83-1.58l-.43.27c.3,2.25.35,3,.11,3.45s-.32,1.66-.57,3.07L263,97.65l-6.79,1.69Z"/>
        <path class="cls-3" d="M248.87,46.93c1.27,1.61,2.32,2.94,2.34,3s.61,1.58,1.31,3.5l1.87.13,1.88.14c1-1.8,1.75-3.26,1.78-3.26h0s1.24-1.14,2.71-2.55l1.74.7,1.74.7c.07,2,.14,3.74.15,3.75s-.43,1.65-1,3.62l1.43,1.2L266.27,59c1.82-.88,3.31-1.59,3.36-1.59h0c.14,0,1.75-.2,3.68-.47l1,1.59,1,1.59c-1.14,1.7-2.08,3.11-2.08,3.13s-1.32,1.07-2.93,2.33l.46,1.82.45,1.83c2,.35,3.65.66,3.65.68s1.46.83,3.26,1.79L278,73.59l-.13,1.88c-1.92.7-3.5,1.29-3.52,1.31s-1.7.09-3.74.16l-.7,1.74-.71,1.74c1.42,1.48,2.57,2.69,2.55,2.7s.69,1.53,1.59,3.37l-1.21,1.44-1.2,1.43c-2-.55-3.58-1-3.62-1h0s-1.43-.92-3.13-2.06l-1.59,1-1.59,1c.28,2,.49,3.68.47,3.68h0s-.33,1.65-.69,3.66l-1.82.45-1.82.46c-1.26-1.61-2.31-2.94-2.33-3s-.61-1.58-1.32-3.5l-1.87-.14-1.87-.13c-1,1.8-1.76,3.26-1.78,3.26h0s-1.25,1.14-2.72,2.55l-1.73-.7-1.74-.7c-.08-2-.15-3.74-.16-3.75s.44-1.65,1-3.62l-1.44-1.2-1.44-1.21c-1.81.88-3.3,1.59-3.35,1.59h0c-.15,0-1.75.2-3.69.47l-1-1.59-1-1.59c1.15-1.7,2.08-3.11,2.08-3.13s1.32-1.07,2.93-2.34L235.25,76l-.45-1.82c-2-.36-3.66-.67-3.65-.69s-1.46-.82-3.27-1.79l.13-1.87.13-1.87c1.92-.7,3.51-1.29,3.52-1.31s1.7-.09,3.74-.16l.71-1.74.7-1.74c-1.42-1.48-2.56-2.69-2.54-2.7s-.7-1.53-1.59-3.37l1.2-1.44,1.2-1.44c2,.56,3.59,1,3.62,1h0s1.44.93,3.13,2.07l1.59-1,1.59-1c-.28-2-.49-3.68-.47-3.68h0s.33-1.65.69-3.66l1.82-.45,1.82-.46m1.93-5.64-3.14.79-1.82.46L244,43l-3.14.78L240.31,47c-.28,1.56-.48,2.67-.58,3.14l0,.07-.25,0-3-.84-3.12-.89-2.08,2.48-1.2,1.44-1.21,1.44-2.07,2.48,1.41,2.91c.71,1.48,1.21,2.52,1.39,2.93l0,0-.05,0-3.12,1.15-3,1.11-.23,3.24L223,69.52l-.13,1.87-.22,3.23,2.85,1.52c1.46.78,2.48,1.34,2.86,1.56l0,0,0,0c-.26.41-.91,1.37-1.85,2.77l-1.8,2.69L226.45,86l1,1.59,1,1.59,1.72,2.75,3.21-.45c1.65-.23,2.8-.37,3.23-.42h0v0c0,.47.07,1.64.13,3.34l.12,3.24,3,1.21,1.74.71,1.74.7,3,1.21,2.33-2.24c1.23-1.19,2.09-2,2.39-2.27l0,0,2.07,2.62,2,2.55,3.14-.78,1.82-.46,1.82-.45,3.14-.79.57-3.18c.28-1.56.49-2.66.58-3.14l0-.07.26,0,3,.84,3.12.89,2.08-2.48,1.2-1.44,1.21-1.44,2.08-2.48-1.41-2.91c-.71-1.46-1.2-2.5-1.39-2.91l0-.07h0l3.14-1.16,3-1.11.23-3.24.13-1.87.13-1.87.22-3.23-2.85-1.53c-1.43-.76-2.43-1.31-2.83-1.53l-.06,0h0c.25-.39.9-1.37,1.87-2.81l1.81-2.7-1.72-2.74-1-1.59-1-1.59-1.72-2.75-3.2.45-3.23.42h0v0c0-.47-.07-1.64-.14-3.35l-.12-3.25-3-1.21-1.74-.7-1.74-.7-3-1.21-2.34,2.24c-1.23,1.19-2.09,2-2.39,2.27v0l-2.08-2.63-2-2.56Z"/>
      </g>
      <g>
        <path class="cls-4" d="M274.86,69.93s-1.64-.33-3.65-.68l-.45-1.83-.46-1.82c1.61-1.26,2.93-2.31,2.93-2.33s.94-1.43,2.08-3.13l-1-1.59-1-1.59c-2,.28-3.69.49-3.69.47s-1.52.69-3.36,1.59l-1.44-1.21-1.43-1.2c.56-2,1-3.6,1-3.62s-.08-1.7-.15-3.75l-1.74-.7-1.74-.7c-1.48,1.42-2.7,2.56-2.71,2.55s-.82,1.45-1.78,3.26l-1.88-.14-1.87-.13c-.7-1.92-1.29-3.5-1.31-3.5s-1.07-1.34-2.34-3l-1.82.46-1.82.45c-.36,2-.67,3.66-.69,3.66s.19,1.66.47,3.68l-1.59,1-1.59,1c-1.7-1.14-3.11-2.07-3.13-2.07s-1.65-.44-3.62-1l-1.2,1.44L232.68,57c.89,1.84,1.6,3.36,1.59,3.37s1.12,1.22,2.54,2.7l-.7,1.74-.71,1.74c-2,.07-3.72.15-3.74.16s-1.6.61-3.52,1.31L228,69.86l-.13,1.87c1.81,1,3.28,1.78,3.27,1.79s1.63.33,3.65.69l.45,1.82.45,1.82c-1.61,1.27-2.93,2.32-2.93,2.34s-.93,1.43-2.08,3.13l1,1.59,1,1.59c2-.28,3.69-.49,3.7-.47s1.51-.69,3.35-1.59l1.44,1.21,1.44,1.2c-.56,2-1,3.6-1,3.62s.08,1.7.16,3.75l1.74.7,1.73.7c1.48-1.42,2.7-2.56,2.72-2.55s.81-1.45,1.78-3.26l1.87.13,1.87.14c.71,1.92,1.3,3.5,1.32,3.5s1.07,1.34,2.33,3l1.82-.46,1.82-.45c.36-2,.67-3.66.69-3.66s-.19-1.66-.47-3.68l1.59-1,1.59-1c1.7,1.14,3.11,2.07,3.13,2.06s1.65.45,3.62,1l1.2-1.43,1.21-1.44c-.9-1.84-1.61-3.36-1.59-3.37s-1.13-1.22-2.55-2.7l.71-1.74.7-1.74c2-.07,3.73-.15,3.74-.16s1.6-.61,3.52-1.31l.13-1.88.13-1.87C276.32,70.76,274.85,70,274.86,69.93ZM255.57,80.12a8.31,8.31,0,1,1,5.17-10.55A8.3,8.3,0,0,1,255.57,80.12Z"/>
        <path class="cls-5" d="M274.86,69.93s-1.64-.33-3.65-.68l-.45-1.83-.46-1.82c1.61-1.26,2.93-2.31,2.93-2.33s.94-1.43,2.08-3.13l-1-1.59-1-1.59c-2,.28-3.69.49-3.69.47s-1.52.69-3.36,1.59l-1.44-1.21-1.43-1.2c.56-2,1-3.6,1-3.62s-.08-1.7-.15-3.75l-1.74-.7-1.74-.7c-1.48,1.42-2.7,2.56-2.71,2.55s-.82,1.45-1.78,3.26l-1.88-.14-1.87-.13c-.7-1.92-1.29-3.5-1.31-3.5s-1.07-1.34-2.34-3l-1.82.46-1.82.45c-.36,2-.67,3.66-.69,3.66s.19,1.66.47,3.68l-1.59,1-1.59,1c-1.7-1.14-3.11-2.07-3.13-2.07s-1.65-.44-3.62-1l-1.2,1.44L232.68,57c.89,1.84,1.6,3.36,1.59,3.37s1.12,1.22,2.54,2.7l-.7,1.74-.71,1.74c-2,.07-3.72.15-3.74.16s-1.6.61-3.52,1.31L228,69.86l-.13,1.87c1.81,1,3.28,1.78,3.27,1.79s1.63.33,3.65.69l.45,1.82.45,1.82c-1.61,1.27-2.93,2.32-2.93,2.34s-.93,1.43-2.08,3.13l1,1.59,1,1.59c2-.28,3.69-.49,3.7-.47s1.51-.69,3.35-1.59l1.44,1.21,1.44,1.2c-.56,2-1,3.6-1,3.62s.08,1.7.16,3.75l1.74.7,1.73.7c1.48-1.42,2.7-2.56,2.72-2.55s.81-1.45,1.78-3.26l1.87.13,1.87.14c.71,1.92,1.3,3.5,1.32,3.5s1.07,1.34,2.33,3l1.82-.46,1.82-.45c.36-2,.67-3.66.69-3.66s-.19-1.66-.47-3.68l1.59-1,1.59-1c1.7,1.14,3.11,2.07,3.13,2.06s1.65.45,3.62,1l1.2-1.43,1.21-1.44c-.9-1.84-1.61-3.36-1.59-3.37s-1.13-1.22-2.55-2.7l.71-1.74.7-1.74c2-.07,3.73-.15,3.74-.16s1.6-.61,3.52-1.31l.13-1.88.13-1.87C276.32,70.76,274.85,70,274.86,69.93ZM255.57,80.12a8.31,8.31,0,1,1,5.17-10.55A8.3,8.3,0,0,1,255.57,80.12Z"/>
      </g>
      <g>
        <path class="cls-4" d="M240.7,101.15l-.57-.26-.92-.42-.58-.27L235,99.38l0-.1-.07-.35-.07-.32-.21-1.06-.37-1.81v0l.61-.44,1.53-1.1.89-.64a1.45,1.45,0,0,1,.19-.22l.54-.59,1.77-1.94v-.06l-.26-.58-.09-.22-.38-.86-.75-1.72-1.44,0h-2.28l-.08,0-1,.19-2.57.52-1.09-1.52L228.73,85l1.87-3.22,1.17-3.53L230.39,77,229,75.69l-3.41,1.47-3,2.15-1.62-1-1.62-1c.23-2,.41-3.7.41-3.7s-.07-.65-.17-1.64c-.06-.59-.13-1.3-.2-2.07l-1.19-.4-.59-.19-1.78-.6-2.52,2.74s-.86,1.43-1.91,3.19l-.45,0-1.41-.16-1.08-.12-.78-.09c-.24-.73-.45-1.42-.64-2-.12-.37-.22-.7-.3-1l-.18-.54a.31.31,0,0,0,0-.07l-1.86-3.29-1.86.18-1.87.18c-.66,1.9-1.21,3.45-1.21,3.45s-.19,1.7-.42,3.78l-1.79.56-1.79.57-.49-.55-.46-.5-.78-.86-.73-.79-.52-.38-.81-.59-1.67-1.23-1.63.92-1.63.93c.07.76.14,1.47.19,2.06l.15,1.64,1.11,3.56-.34.3-1.06.94-1.41,1.24L183.73,82l-.5-.23-.73-.33a2.42,2.42,0,0,1-.27-.12,1.82,1.82,0,0,1-.29-.06l-.78-.17-1.84-.4-.73-.16-.27.37-.85,1.14-1.11,1.51c1,1.78,1.82,3.24,1.82,3.25s1.1,1.26,2.46,2.79l-.78,1.71c-.19.43-.34.75-.45,1l-.14.3-.19.42h-3.72l-3.64.76-.41,1.83-.4,1.83,1.16.86,1.59,1.19.24.17.78.37.91.41.91.42.78.36V105l-3.38,1.5-3,2.16.38,1.84.37,1.84,3.58.82s1.62,0,3.67.06l.75,1.72.74,1.72-2.5,2.76s-.84,1.45-1.88,3.21l1.09,1.53,1.09,1.52,3.66-.73s1.54-.66,3.41-1.47l1.39,1.27,1.38,1.26c-.64,2-1.17,3.54-1.16,3.54s-.19,1.67-.41,3.7l1.61.95,1.62,1,2.14-1.52.84-.59.06,0,2.52-2.74,1.78.6,1.78.59c.2,2,.37,3.71.37,3.71s.52,1.59,1.14,3.54l1.86.21,1.86.21c.53-.88,1-1.68,1.34-2.26s.56-.95.56-.95.14-.4.35-1,.52-1.53.84-2.5l1.87-.18,1.87-.18c1,1.76,1.83,3.2,1.84,3.2l2.48,2.81,1.79-.57,1.79-.56c.24-2,.43-3.67.44-3.67s-.15-1.67-.35-3.71l1.64-.92,1.63-.93,3,2.21s1.53.68,3.39,1.53l1.41-1.25,1.4-1.24-1.11-3.56-.14-.25c-.09-.17-.22-.41-.39-.7l-.27-.48c-.19-.35-.41-.74-.65-1.16l-.37-.65,1.12-1.51,1.11-1.51,3.64.79H238l.1-.21.68-1.5.68-1.49.1-.21-2.46-2.8s-1.34-1-3-2.23l.41-1.83.4-1.83.74-.15,2.28-.47a5.86,5.86,0,0,0,.63-.14l3.41-1.49v-1.88l0-1.88Zm-31.85,13.74a11.88,11.88,0,1,1,8.56-14.46A11.88,11.88,0,0,1,208.85,114.89Z"/>
        <path class="cls-5" d="M240.7,101.15l-.57-.26-.92-.42-.58-.27L235,99.38l0-.1-.07-.35-.07-.32-.21-1.06-.37-1.81v0l.61-.44,1.53-1.1.89-.64a1.45,1.45,0,0,1,.19-.22l.54-.59,1.77-1.94v-.06l-.26-.58-.09-.22-.38-.86-.75-1.72-1.44,0h-2.28l-.08,0-1,.19-2.57.52-1.09-1.52L228.73,85l1.87-3.22,1.17-3.53L230.39,77,229,75.69l-3.41,1.47-3,2.15-1.62-1-1.62-1c.23-2,.41-3.7.41-3.7s-.07-.65-.17-1.64c-.06-.59-.13-1.3-.2-2.07l-1.19-.4-.59-.19-1.78-.6-2.52,2.74s-.86,1.43-1.91,3.19l-.45,0-1.41-.16-1.08-.12-.78-.09c-.24-.73-.45-1.42-.64-2-.12-.37-.22-.7-.3-1l-.18-.54a.31.31,0,0,0,0-.07l-1.86-3.29-1.86.18-1.87.18c-.66,1.9-1.21,3.45-1.21,3.45s-.19,1.7-.42,3.78l-1.79.56-1.79.57-.49-.55-.46-.5-.78-.86-.73-.79-.52-.38-.81-.59-1.67-1.23-1.63.92-1.63.93c.07.76.14,1.47.19,2.06l.15,1.64,1.11,3.56-.34.3-1.06.94-1.41,1.24L183.73,82l-.5-.23-.73-.33a2.42,2.42,0,0,1-.27-.12,1.82,1.82,0,0,1-.29-.06l-.78-.17-1.84-.4-.73-.16-.27.37-.85,1.14-1.11,1.51c1,1.78,1.82,3.24,1.82,3.25s1.1,1.26,2.46,2.79l-.78,1.71c-.19.43-.34.75-.45,1l-.14.3-.19.42h-3.72l-3.64.76-.41,1.83-.4,1.83,1.16.86,1.59,1.19.24.17.78.37.91.41.91.42.78.36V105l-3.38,1.5-3,2.16.38,1.84.37,1.84,3.58.82s1.62,0,3.67.06l.75,1.72.74,1.72-2.5,2.76s-.84,1.45-1.88,3.21l1.09,1.53,1.09,1.52,3.66-.73s1.54-.66,3.41-1.47l1.39,1.27,1.38,1.26c-.64,2-1.17,3.54-1.16,3.54s-.19,1.67-.41,3.7l1.61.95,1.62,1,2.14-1.52.84-.59.06,0,2.52-2.74,1.78.6,1.78.59c.2,2,.37,3.71.37,3.71s.52,1.59,1.14,3.54l1.86.21,1.86.21c.53-.88,1-1.68,1.34-2.26s.56-.95.56-.95.14-.4.35-1,.52-1.53.84-2.5l1.87-.18,1.87-.18c1,1.76,1.83,3.2,1.84,3.2l2.48,2.81,1.79-.57,1.79-.56c.24-2,.43-3.67.44-3.67s-.15-1.67-.35-3.71l1.64-.92,1.63-.93,3,2.21s1.53.68,3.39,1.53l1.41-1.25,1.4-1.24-1.11-3.56-.14-.25c-.09-.17-.22-.41-.39-.7l-.27-.48c-.19-.35-.41-.74-.65-1.16l-.37-.65,1.12-1.51,1.11-1.51,3.64.79H238l.1-.21.68-1.5.68-1.49.1-.21-2.46-2.8s-1.34-1-3-2.23l.41-1.83.4-1.83.74-.15,2.28-.47a5.86,5.86,0,0,0,.63-.14l3.41-1.49v-1.88l0-1.88Zm-31.85,13.74a11.88,11.88,0,1,1,8.56-14.46A11.88,11.88,0,0,1,208.85,114.89Z"/>
      </g>
      <g>
        <path class="cls-4" d="M251.5,156.25l.23-1.86.23-1.86c1.95-.61,3.56-1.12,3.57-1.14s1.38-1,3.06-2.18l-.36-1.84-.37-1.84c-2-.46-3.62-.86-3.61-.88s-1.67.11-3.71.29l-.91-1.64-.91-1.64c1.23-1.64,2.23-3,2.22-3s.54-1.62,1.2-3.56l-1.38-1.28-1.37-1.28c-1.88.8-3.43,1.44-3.44,1.42s-1.29,1.06-2.83,2.41l-1.7-.8-1.7-.79c0-2,0-3.73,0-3.74s-.52-1.63-1.13-3.59l-1.86-.22-1.86-.23c-1.06,1.75-1.94,3.18-2,3.17s-.41,1.62-.87,3.61l-1.84.36-1.84.36c-1.18-1.67-2.16-3-2.19-3s-1.37-1-3-2.23l-1.64.91-1.64.91c.18,2,.3,3.71.28,3.71s.62,1.55,1.41,3.44l-1.28,1.37L219,140.91c-1.94-.66-3.54-1.19-3.56-1.18s-1.71,0-3.76,0l-.78,1.7-.79,1.7c1.34,1.54,2.42,2.82,2.41,2.84s1.4.89,3.16,1.94l-.23,1.87-.23,1.86c-1.95.6-3.56,1.11-3.57,1.13s-1.38,1-3.06,2.18l.36,1.84.36,1.84c2,.47,3.63.86,3.62.88s1.67-.1,3.7-.28l.92,1.64.91,1.64c-1.23,1.64-2.23,3-2.23,3s-.53,1.62-1.19,3.56l1.37,1.28,1.38,1.27c1.88-.79,3.43-1.43,3.44-1.41s1.29-1.07,2.83-2.41l1.7.79,1.7.8c0,2,0,3.73,0,3.74s.52,1.63,1.13,3.58l1.86.23,1.86.23c1.06-1.76,1.94-3.18,1.95-3.17s.42-1.62.88-3.61L237,170l1.84-.36c1.18,1.67,2.16,3,2.18,3s1.38,1,3,2.24l1.64-.91,1.64-.91c-.18-2-.3-3.71-.28-3.72s-.62-1.54-1.41-3.43l1.27-1.37,1.28-1.38c1.94.66,3.54,1.2,3.56,1.19s1.71,0,3.75,0l.79-1.7.79-1.7c-1.34-1.55-2.42-2.82-2.41-2.84S253.26,157.31,251.5,156.25Zm-17.71,4.12a8.31,8.31,0,1,1,8.31-8.31A8.31,8.31,0,0,1,233.79,160.37Z"/>
        <path class="cls-5" d="M251.5,156.25l.23-1.86.23-1.86c1.95-.61,3.56-1.12,3.57-1.14s1.38-1,3.06-2.18l-.36-1.84-.37-1.84c-2-.46-3.62-.86-3.61-.88s-1.67.11-3.71.29l-.91-1.64-.91-1.64c1.23-1.64,2.23-3,2.22-3s.54-1.62,1.2-3.56l-1.38-1.28-1.37-1.28c-1.88.8-3.43,1.44-3.44,1.42s-1.29,1.06-2.83,2.41l-1.7-.8-1.7-.79c0-2,0-3.73,0-3.74s-.52-1.63-1.13-3.59l-1.86-.22-1.86-.23c-1.06,1.75-1.94,3.18-2,3.17s-.41,1.62-.87,3.61l-1.84.36-1.84.36c-1.18-1.67-2.16-3-2.19-3s-1.37-1-3-2.23l-1.64.91-1.64.91c.18,2,.3,3.71.28,3.71s.62,1.55,1.41,3.44l-1.28,1.37L219,140.91c-1.94-.66-3.54-1.19-3.56-1.18s-1.71,0-3.76,0l-.78,1.7-.79,1.7c1.34,1.54,2.42,2.82,2.41,2.84s1.4.89,3.16,1.94l-.23,1.87-.23,1.86c-1.95.6-3.56,1.11-3.57,1.13s-1.38,1-3.06,2.18l.36,1.84.36,1.84c2,.47,3.63.86,3.62.88s1.67-.1,3.7-.28l.92,1.64.91,1.64c-1.23,1.64-2.23,3-2.23,3s-.53,1.62-1.19,3.56l1.37,1.28,1.38,1.27c1.88-.79,3.43-1.43,3.44-1.41s1.29-1.07,2.83-2.41l1.7.79,1.7.8c0,2,0,3.73,0,3.74s.52,1.63,1.13,3.58l1.86.23,1.86.23c1.06-1.76,1.94-3.18,1.95-3.17s.42-1.62.88-3.61L237,170l1.84-.36c1.18,1.67,2.16,3,2.18,3s1.38,1,3,2.24l1.64-.91,1.64-.91c-.18-2-.3-3.71-.28-3.72s-.62-1.54-1.41-3.43l1.27-1.37,1.28-1.38c1.94.66,3.54,1.2,3.56,1.19s1.71,0,3.75,0l.79-1.7.79-1.7c-1.34-1.55-2.42-2.82-2.41-2.84S253.26,157.31,251.5,156.25Zm-17.71,4.12a8.31,8.31,0,1,1,8.31-8.31A8.31,8.31,0,0,1,233.79,160.37Z"/>
      </g>
      <circle class="cls-6" cx="206.78" cy="102.88" r="20.99"/>
    </g>
  </g>
</svg>
