<svg id="Set1b" xmlns="http://www.w3.org/2000/svg" xmlns:xlink="http://www.w3.org/1999/xlink" width="300" height="300" viewBox="0 0 300 300">
  <defs>
    <style>
      .cls-1, .cls-6, .cls-8 {
        fill: none;
      }

      .cls-2, .cls-3 {
        fill: #fff;
        stroke: #5b6771;
      }

      .cls-2, .cls-3, .cls-6, .cls-8 {
        stroke-miterlimit: 10;
      }

      .cls-2 {
        stroke-width: 7px;
      }

      .cls-3, .cls-8 {
        stroke-width: 4px;
      }

      .cls-4 {
        fill: #5b6770;
      }

      .cls-5 {
        clip-path: url(#clip-path);
      }

      .cls-6 {
        stroke: #fff;
        stroke-width: 3px;
      }

      .cls-7 {
        clip-path: url(#clip-path-2);
      }

      .cls-8 {
        stroke: #5b6770;
      }

      .cls-9 {
        fill: #78d64b;
      }
    </style>
    <clipPath id="clip-path">
      <circle class="cls-1" cx="150" cy="130" r="126"/>
    </clipPath>
    <clipPath id="clip-path-2">
      <path class="cls-1" d="M203.07,285.41H31.26a11.63,11.63,0,0,1-5.87-1.47,11.5,11.5,0,0,1-5.51-11l9.55-83.34c1.1-9.54,8.07-18.35,16.88-21.29L71.64,161c2.94-1.1,7-1.1,9.55,1.1l12.48,12.85a32.62,32.62,0,0,0,47.36,0l12.48-12.85a12.47,12.47,0,0,1,9.54-1.1l25.33,7.34c8.82,2.94,18.79,12.48,19.89,21.29l9.81,83c.37,2.94-4.36,6.61-6.93,8.44A10.15,10.15,0,0,1,203.07,285.41Z"/>
    </clipPath>
    <symbol id="ShlMan" data-name="ShlMan" viewBox="0 0 201.34 232.04">
      <g id="puzzle_outline" data-name="puzzle outline">
        <g>
          <path class="cls-2" d="M186.73,228.55H14.93a11.66,11.66,0,0,1-5.88-1.47,11.5,11.5,0,0,1-5.5-11l9.54-83.33c1.1-9.55,8.08-18.36,16.89-21.29l25.33-7.35c2.94-1.1,7-1.1,9.54,1.11l12.49,12.85a32.61,32.61,0,0,0,47.35,0l12.48-12.85a12.54,12.54,0,0,1,9.55-1.11l25.33,7.35c8.81,2.93,15.79,12.48,16.89,21.29l8.81,83c.36,2.93-.37,6.6-2.94,8.44A10.14,10.14,0,0,1,186.73,228.55Z"/>
          <circle class="cls-3" cx="99.73" cy="49.72" r="47.72"/>
        </g>
      </g>
    </symbol>
  </defs>
  <title>Supporting</title>
  <g id="Layer_49_copy" data-name="Layer 49 copy">
    <circle class="cls-4" cx="150" cy="130" r="126"/>
  </g>
  <g id="Supporting_copy_2" data-name="Supporting copy 2">
    <use width="201.34" height="232.05" transform="translate(19.34 53.86)" xlink:href="#ShlMan"/>
    <g id="Layer_6_copy_4" data-name="Layer 6 copy 4">
      <g>
        <g class="cls-5">
          <path class="cls-6" d="M283.9,249.5H143.05a9.6,9.6,0,0,1-4.82-1.2,9.44,9.44,0,0,1-4.51-9L141.55,171c.9-7.83,6.62-15,13.84-17.46l20.77-6c2.4-.91,5.71-.91,7.82.9l10.23,10.53a26.74,26.74,0,0,0,38.83,0l10.23-10.53a10.2,10.2,0,0,1,7.82-.9l20.77,6c7.22,2.41,12.94,10.24,13.84,17.46l7.23,68c.3,2.4-.3,5.41-2.41,6.92A8.31,8.31,0,0,1,283.9,249.5Z"/>
        </g>
        <circle class="cls-6" cx="212.57" cy="99.62" r="39.12"/>
        <g class="cls-7">
          <path class="cls-8" d="M283.9,249.5H143.05a9.6,9.6,0,0,1-4.82-1.2,9.44,9.44,0,0,1-4.51-9L141.55,171c.9-7.83,6.62-15,13.84-17.46l20.77-6c2.4-.91,5.71-.91,7.82.9l10.23,10.53a26.74,26.74,0,0,0,38.83,0l10.23-10.53a10.2,10.2,0,0,1,7.82-.9l20.77,6c7.22,2.41,12.94,10.24,13.84,17.46l7.23,68c.3,2.4-.3,5.41-2.41,6.92A8.31,8.31,0,0,1,283.9,249.5Z"/>
        </g>
      </g>
    </g>
    <circle class="cls-9" cx="173.41" cy="211.81" r="21"/>
  </g>
</svg>
